<?xml version="1.0" encoding="UTF-8" standalone="no"?>
<svg
   version="1.0"
   width="306"
   height="335"
   viewBox="0 0 229.50001 251.24999"
   preserveAspectRatio="xMidYMid meet"
   id="svg87"
   sodipodi:docname="2.svg"
   inkscape:version="1.1 (c68e22c387, 2021-05-23)"
   xmlns:inkscape="http://www.inkscape.org/namespaces/inkscape"
   xmlns:sodipodi="http://sodipodi.sourceforge.net/DTD/sodipodi-0.dtd"
   xmlns="http://www.w3.org/2000/svg"
   xmlns:svg="http://www.w3.org/2000/svg">
  <defs
     id="defs91" />
  <sodipodi:namedview
     id="namedview89"
     pagecolor="#ffffff"
     bordercolor="#666666"
     borderopacity="1.0"
     inkscape:pageshadow="2"
     inkscape:pageopacity="0.0"
     inkscape:pagecheckerboard="0"
     inkscape:document-units="pt"
     showgrid="false"
     units="px"
     width="305px"
     inkscape:showpageshadow="false"
     inkscape:zoom="1.0824912"
     inkscape:cx="271.13384"
     inkscape:cy="194.45886"
     inkscape:window-width="1366"
     inkscape:window-height="705"
     inkscape:window-x="-8"
     inkscape:window-y="-8"
     inkscape:window-maximized="1"
     inkscape:current-layer="g85" />
  <metadata
     id="metadata9">
Created by potrace 1.16, written by Peter Selinger 2001-2019
</metadata>
  <g
     transform="matrix(0.1,0,0,-0.1,0,988)"
     fill="#000000"
     stroke="none"
     id="g85">
    <path
       d="m 1085.7248,9855.9771 c -67.8451,-15.7372 -127.29713,-61.5502 -158.77163,-122.0513 -21.6825,-41.9661 -26.2288,-61.5502 -26.2288,-111.9095 0.3497,-37.4198 1.7486,-47.5616 9.4423,-70.2932 24.83,-72.7412 83.93216,-132.1931 152.82653,-153.8756 46.5124,-14.6881 100.7186,-14.6881 146.8812,0 72.0418,22.7316 135.6904,89.8773 155.974,164.7168 9.4423,34.622 8.7429,92.3254 -1.7486,125.8983 -16.7865,54.2061 -45.1136,95.1231 -87.4294,126.2479 -23.431,17.1361 -62.5993,34.9717 -91.2762,41.2666 -19.2344,4.5464 -80.4349,4.1966 -99.6694,0 z"
       id="path11"
       style="fill:#ff0000;stroke-width:0.999999" />
    <path
       d="m 713.27587,9344.3408 c -0.6994,-50.0096 0.3497,-1262.4794 1.0492,-1263.1789 0.3497,-0.3497 91.9756,33.5729 203.5354,75.539 l 202.83603,75.8886 1.0492,481.211 0.6994,480.8613 -25.1796,9.4423 c -13.9887,5.2458 -50.0096,18.8848 -79.7356,30.0757 -208.08173,78.6864 -304.25403,113.6581 -304.25403,110.161 z"
       id="path13"
       style="fill:#ff0000;stroke-width:0.999999" />
    <path
       d="m 1356.7557,9272.299 c -110.5107,-41.6164 -203.1857,-76.5881 -205.284,-77.987 -3.4972,-2.448 -4.5464,-102.1174 -4.5464,-479.4624 0,-377.3449 1.0492,-477.7138 4.5464,-480.1618 2.0983,-2.0983 94.7733,-37.4197 205.284,-79.0361 l 201.0874,-75.1892 1.0492,318.2427 c 0.3497,174.8587 0.3497,460.228 0,633.6877 l -1.0492,315.445 z"
       id="path15"
       style="fill:#ff0000;stroke-width:0.999999" />
    <path
       d="m 279.62647,8712.7513 c 0,-347.9687 0.6994,-632.9882 1.7486,-632.9882 3.8469,0 98.2705,36.3706 102.4671,39.518 3.1475,2.7978 4.1966,124.4994 3.4972,596.268 l -1.0491,593.1205 -26.2288,10.1418 c -37.0701,13.9887 -74.1401,26.9282 -77.6373,26.9282 -1.3988,0 -2.7977,-284.6698 -2.7977,-632.9883 z"
       id="path17"
       style="fill:#ffcc00;stroke-width:0.999999" />
    <path
       d="m 405.52467,8712.7513 c 0,-347.9687 0.6994,-632.9882 1.3989,-632.9882 0.6994,0 19.9339,6.9943 43.0152,15.7372 22.7316,8.743 48.261,18.5351 57.0039,21.6825 8.7429,2.7978 17.8356,6.9944 20.2836,8.7429 3.1475,2.7978 4.1966,125.1988 4.1966,589.9731 v 586.1262 l -58.7525,22.0321 c -32.174,11.8904 -60.5011,21.6825 -62.9491,21.6825 -3.1474,0 -4.1966,-137.4389 -4.1966,-632.9883 z"
       id="path19"
       style="fill:#ff7f2a;stroke-width:0.999999" />
    <path
       d="m 548.90877,8712.7513 c 0,-347.9687 1.0491,-632.9882 2.7977,-632.9882 1.3989,0 33.2232,11.8904 70.6429,25.879 l 68.1949,25.8791 1.0491,579.8313 c 0.3498,356.0122 -0.6994,581.2301 -2.448,582.9787 -4.1966,4.1966 -128.6959,51.4084 -135.3406,51.4084 -4.1966,0 -4.896,-99.3197 -4.896,-632.9883 z"
       id="path21"
       style="fill:#ff6600;stroke-width:0.999999" />
    <path
       d="m 1671.5013,9329.6526 c -22.0322,-8.3932 -51.7582,-19.5841 -65.7469,-24.4802 l -25.1796,-9.4424 0.6994,-581.9295 1.0492,-582.2793 64.6976,-24.4802 c 35.6712,-13.2892 67.1458,-24.4802 69.9435,-24.8299 4.5463,-0.6994 5.2458,72.0417 6.2949,631.5894 0.6994,600.1148 0.3497,631.9391 -5.2457,631.5894 -3.4972,0 -24.4803,-6.9943 -46.5124,-15.7373 z"
       id="path23"
       style="fill:#ff6600;stroke-width:0.999999" />
    <path
       d="m 1798.4486,9323.7074 -57.0039,-21.6824 v -586.4759 c 0,-458.1297 1.0492,-587.1753 4.1966,-589.2736 8.3932,-5.5955 116.4559,-45.4633 119.2536,-44.0644 1.3989,0.6994 2.448,285.3693 2.448,632.6385 0,598.716 -0.3497,630.89 -5.9452,630.5403 -3.4971,0 -31.8242,-10.1418 -62.9491,-21.6825 z"
       id="path25"
       style="fill:#ff7f2a;stroke-width:0.999999" />
    <path
       d="m 1961.7666,9337.3464 c -12.5898,-4.5463 -34.622,-12.9395 -48.9604,-18.535 l -26.2288,-10.1418 -1.0492,-592.4211 c -0.3497,-381.8913 0.3498,-593.4702 2.7978,-595.9182 4.896,-4.8961 99.3197,-40.2175 102.4671,-38.1192 1.3989,0.6994 2.4481,285.3693 2.4481,632.6385 0,502.5438 -1.0492,630.89 -4.1967,630.89 -2.448,-0.3497 -14.6881,-3.8469 -27.2779,-8.3932 z"
       id="path27"
       style="fill:#ffcc00;stroke-width:0.999999" />
    <path
       d="m 696.46977,7847.344 c -2.2613,-2.9687 -3.8441,-6.5311 -3.8441,-7.7185 0,-1.1875 6.1054,-10.984 13.5677,-21.6712 12.8894,-18.7024 16.5074,-27.6084 11.0803,-27.6084 -1.3568,0 -8.5929,8.0154 -15.829,17.8119 -11.5326,15.7338 -14.0201,17.515 -17.8642,14.8432 -7.4623,-5.3436 -5.4271,-13.3589 4.5226,-19.2962 4.9747,-2.9686 9.0452,-7.4216 9.0452,-9.7965 0,-3.5624 -5.8794,-4.1561 -38.8944,-3.2655 l -39.1203,1.1874 v -8.9059 c 0,-7.4216 1.1307,-9.2028 6.7839,-10.3903 l 6.7839,-1.4843 -0.9045,-21.6711 -0.6784,-21.6712 9.4974,-11.8745 c 10.8542,-13.6558 10.4019,-15.7339 -6.1054,-28.4991 -11.5327,-8.9059 -13.1156,-18.7025 -3.8443,-24.3429 5.4271,-3.2655 6.7839,-2.078 23.2913,18.9994 22.8391,29.0927 26.9094,29.3896 22.8391,1.4843 -2.7136,-18.4057 -0.2261,-24.6398 8.819,-23.1554 l 5.8794,0.8905 v 54.0294 c 0,35.9206 0.9045,55.2169 2.4875,57.2949 1.3567,1.7812 6.5577,2.9687 11.3064,2.3749 l 8.8191,-0.8905 v -54.6232 c 0,-48.6858 0.4522,-54.92 4.0703,-57.8886 2.7134,-2.3749 4.9748,-2.3749 7.9145,0 3.3919,2.9686 3.8442,8.3122 2.9396,56.998 l -0.9045,53.7326 5.4271,1.7812 c 2.9398,0.8905 16.0552,1.4843 29.1707,0.8905 20.3516,-0.8905 23.7436,-1.4843 24.4219,-5.9372 0.6785,-4.453 -1.1306,-5.3436 -11.3064,-5.3436 -14.02,0 -22.1606,-4.7499 -26.0048,-14.8433 -2.4875,-6.2341 -2.0352,-8.9059 2.9396,-20.1868 4.2965,-9.2028 5.4271,-15.1401 4.2965,-21.3742 -2.0351,-11.8747 3.618,-24.9367 13.7939,-31.1708 10.4019,-6.2342 25.1003,-3.8593 37.3112,6.2341 4.7488,3.8593 9.7236,7.1248 11.0804,7.1248 1.1306,0 2.2612,-5.9373 2.2612,-13.3589 0,-14.5464 4.0704,-19.89 11.0805,-14.2495 3.1657,2.6717 3.3919,9.7965 2.7135,56.7011 l -0.6784,53.7326 5.6533,1.7812 c 2.9396,1.1874 8.5929,1.4843 11.9848,0.8905 l 6.5578,-0.8905 v -54.6232 c 0,-48.6858 0.4522,-54.92 3.8442,-57.8886 2.9396,-2.3749 5.2009,-2.3749 7.9145,0 3.618,2.9686 4.0703,8.906 3.618,56.4043 -0.2261,38.5924 0.2261,53.4356 2.2613,55.2168 4.0704,3.5624 16.9597,2.6719 18.7687,-0.8905 0.9046,-2.0781 1.5829,-27.6085 1.8091,-57.295 l 0.2261,-53.7325 5.8793,-0.8905 c 3.1659,-0.5938 6.7839,0.8905 7.9145,2.9686 1.3568,2.3749 1.8091,23.4523 0.9047,54.3262 -1.3568,57.5918 -1.3568,57.8887 15.8289,57.8887 11.9849,0 15.8291,-3.8593 15.8291,-15.1401 0,-12.4684 -2.2613,-17.5151 -7.9145,-17.5151 -7.01,0 -9.4974,-9.7965 -4.7487,-19.2962 6.1055,-12.1714 15.829,-22.5617 20.5777,-21.6711 4.0704,0.8906 4.5226,3.8593 5.6532,36.5144 l 1.1307,35.6238 h 10.1758 10.1758 l -0.9045,-55.5138 -0.9045,-55.8106 5.4271,-2.6718 c 3.8441,-1.7811 6.5577,-1.4843 9.0452,1.4844 3.16576,3.5623 3.39196,11.2809 2.48736,57.5918 -0.90446,44.2328 -0.4522,53.4356 2.0352,53.4356 1.809,0 15.37677,0.8906 30.52747,1.4844 33.9194,2.078 33.6932,2.3748 31.8843,-32.0615 -1.3568,-21.3742 -2.2613,-25.2335 -7.2363,-30.8739 -7.236,-8.3122 -10.1757,-8.6091 -16.5073,-0.8906 -9.9497,12.1715 -3.392,33.8426 10.4019,34.1395 8.1407,0 9.4974,9.2028 1.8091,13.6557 -7.6885,4.7499 -16.5075,1.1875 -25.5527,-10.6871 -11.0803,-14.5464 -9.7235,-35.3269 3.1659,-50.467 5.2009,-5.9373 8.8189,-7.1248 19.4471,-7.4216 h 13.1155 l -0.6785,-12.1715 c -0.9045,-14.2495 4.2965,-21.3742 11.3065,-15.7338 3.392,2.9686 3.8442,7.4216 2.9397,32.952 -0.6784,28.2021 -0.4523,29.6865 5.4271,38.8893 6.7839,10.6871 12.211,11.8745 17.6381,4.1561 5.8794,-8.3122 4.5226,-18.7025 -4.0703,-32.952 -9.0452,-14.8433 -9.7235,-19.5931 -3.3919,-24.046 6.7838,-4.7499 11.7586,0.2968 19.8993,20.1868 8.3668,20.7804 8.819,27.6084 2.7136,40.9672 -5.6532,11.8747 -16.2814,16.9214 -28.9445,14.2496 -10.6282,-2.0781 -14.0201,2.6718 -9.7237,13.3589 2.2613,5.6404 4.5226,5.9373 30.3014,5.3436 l 27.5877,-0.5937 -0.6784,-54.6232 c -0.6783,-58.1855 -0.2261,-59.6698 10.1759,-59.6698 5.427,0 10.8542,9.7965 8.819,16.3276 -0.4522,2.078 -1.3568,24.3428 -1.5829,49.2795 l -0.4522,45.4204 6.7838,2.3748 c 3.8442,1.1875 7.6884,4.7499 8.3668,7.4217 2.0352,7.1247 -4.9748,13.3589 -12.2111,11.2808 -6.5576,-1.7812 -9.9496,1.1875 -19.8993,18.4057 -4.0702,6.8279 -12.8893,16.9213 -19.4471,22.8585 -9.9497,8.6091 -14.4723,10.6872 -23.2913,10.6872 -19.8994,0 -31.2058,-16.0308 -29.6229,-41.858 l 0.6784,-10.0934 -33.6933,-0.5937 -33.91943,-0.5937 -14.6984,20.1868 c -8.1407,10.984 -19.8993,22.8586 -25.7787,26.7178 -28.2662,18.1088 -55.1755,0.5937 -53.1404,-34.1394 l 0.6784,-11.5778 -11.3065,-0.8906 -11.3064,-0.8906 -11.0803,19.5931 c -5.8794,10.6872 -12.2111,21.0774 -13.5678,23.1554 -1.5829,2.0781 -4.0703,6.5311 -5.6532,10.3903 -4.5226,10.984 -18.3165,7.1248 -18.3165,-5.6404 0,-2.6718 7.2361,-13.0621 15.8291,-23.1555 8.819,-10.3902 15.829,-19.8899 15.829,-21.3742 0,-1.7812 -23.7436,-2.3749 -60.3765,-2.0781 l -60.6027,0.8906 -10.628,23.7493 c -18.0904,40.3735 -19.8994,42.4516 -27.3617,31.7645 z m 243.3151,-26.1242 c 10.628,-7.1247 26.6832,-24.9366 25.3264,-28.2021 -0.9045,-1.4844 -13.5677,-2.6718 -28.4922,-2.6718 -29.1706,0 -28.2662,-0.5937 -27.1355,17.8119 0.9045,16.0307 16.0551,22.5617 30.3013,13.062 z m 156.02923,0 c 9.0451,-5.9372 21.9345,-21.9679 21.9345,-27.0146 0,-5.9374 -43.6429,-5.3436 -47.4871,0.5937 -3.6181,5.9373 -0.6784,21.0774 5.2009,26.7178 6.1055,5.6405 11.3065,5.6405 20.3517,-0.2969 z m -420.14813,-49.2795 c 1.3567,-0.8906 2.0351,-10.3903 1.5828,-21.0774 -0.9045,-22.2649 -5.6531,-31.7645 -16.2813,-31.7645 -9.7235,0 -13.5677,9.2028 -13.5677,33.2488 0,18.1088 0.4523,19.89 5.201,20.7805 8.1406,1.4844 20.5777,0.8907 23.0652,-1.1874 z m 144.7226,-28.7959 v -31.1708 l -12.437,-9.7965 c -9.7236,-7.7185 -14.4723,-9.4997 -22.3869,-8.906 -18.5425,1.1875 -18.9948,20.4837 -0.4522,22.2649 10.6281,1.1874 14.2461,7.1247 8.3668,14.8432 -2.9397,4.1561 -4.9749,4.1561 -13.1155,1.4843 -8.1406,-2.9686 -10.402,-2.6717 -13.5678,1.1875 -9.2712,10.984 -0.6784,16.9213 21.9346,15.1401 l 11.3065,-0.8906 0.6783,11.8746 c 0.9045,13.6558 3.392,16.6245 12.8894,15.7338 l 6.7838,-0.8905 z"
       id="path193"
       style="fill:#000080;stroke-width:0.999999" />
    <path
       d="m 1667.9211,7846.1565 -4.7487,-6.8279 15.6029,-21.6712 c 8.5928,-12.1714 15.1506,-23.1554 14.4723,-24.6397 -3.1659,-6.5311 -10.6282,-1.4844 -22.3868,15.437 -13.794,19.2961 -20.1256,21.6711 -21.2562,8.0153 -0.6783,-6.8279 0.6784,-8.9059 8.5929,-14.2495 12.8893,-8.6091 9.7236,-13.062 -7.6884,-10.984 -16.0551,2.078 -20.1255,-0.2969 -18.9949,-10.0934 0.6785,-7.1247 0.9045,-7.1247 30.0752,-7.1247 27.8139,0 29.3968,-0.2969 29.3968,-5.9374 0,-5.3435 -1.809,-5.9372 -20.3516,-7.4216 -11.0803,-0.8906 -21.7083,-2.6718 -23.0652,-3.8592 -4.2964,-3.5624 -3.618,-13.0621 1.8091,-25.8272 4.5225,-10.6872 4.7487,-11.5778 1.1306,-18.1088 -5.201,-9.7965 -4.5226,-27.0147 1.1306,-36.5144 6.5578,-10.9839 20.804,-19.8899 34.5978,-21.3743 13.5678,-1.7811 19.6733,2.0781 15.8291,9.7966 -1.3568,2.6718 -4.7488,5.9373 -7.9145,7.1248 -2.9397,1.1874 -9.7236,3.5624 -14.9245,5.3435 -11.985,4.1561 -16.5075,10.0934 -16.5075,21.3743 0,7.4216 1.3568,9.7965 7.9145,13.3589 10.6281,5.6404 17.8642,5.3436 22.3868,-1.4843 3.1658,-4.7498 3.3919,-6.8279 1.1307,-11.5778 -4.0704,-8.6091 -1.1307,-15.4369 7.01,-15.4369 8.5928,0 12.6632,9.4997 10.4019,24.6398 -2.2613,15.7338 -9.9497,20.7805 -30.3013,20.7805 -17.1858,-0.2969 -18.0903,0.2969 -19.4472,13.9526 -0.2261,0.8906 9.4975,2.0781 21.2562,2.9687 l 21.4823,1.4843 0.2261,11.2809 c 0.2261,5.9373 0.9045,11.8746 1.5829,12.7651 1.8091,2.375 59.9243,4.7499 65.1252,2.6719 4.9749,-2.0781 5.6533,-8.906 1.583,-12.4684 -1.583,-1.1874 -9.2714,-2.3749 -16.9597,-2.3749 -10.6281,0 -15.3768,-1.4843 -20.3517,-6.2342 -21.9345,-21.3743 -2.9396,-69.4663 27.5878,-69.4663 8.1406,0 11.3064,-3.5624 13.5677,-15.7339 2.0352,-9.7965 8.593,-15.1401 16.0553,-12.7652 6.5577,2.375 7.01,10.6872 0.9044,18.1088 -6.3315,7.7185 -7.4622,14.8433 -3.618,24.6398 4.0703,10.3903 2.7136,19.5931 -3.8442,23.4523 -7.2361,4.453 -14.2462,-0.2968 -16.9597,-10.6871 -2.7136,-10.3903 -6.5577,-11.2809 -16.2814,-4.7498 -7.4622,5.0467 -11.3063,12.7651 -11.3063,22.8585 0,11.5777 4.0703,14.2495 22.8389,14.2495 23.2914,0 24.6481,0.8906 24.6481,16.3276 0,7.7185 1.1307,13.0621 2.9397,13.6558 1.3568,0.5937 14.2462,0.8906 28.2662,0.2968 l 25.3265,-0.8905 v -13.0621 c 0,-18.1087 -1.5829,-22.2649 -9.4975,-22.2649 -4.9748,0 -7.4622,2.0781 -10.4019,8.906 -6.3316,14.8432 -16.2813,15.4369 -16.2813,1.1874 0,-8.3122 23.9697,-55.5137 40.251,-78.966 4.7487,-6.8279 6.3316,-7.4216 10.8542,-4.7498 8.819,5.3435 6.5578,13.9526 -8.3668,33.8426 -12.6632,16.9213 -13.3416,18.4056 -9.9497,23.1554 2.0352,2.6718 4.9749,4.7498 6.5578,4.7498 6.1055,0 10.1758,10.6872 10.8542,28.2022 l 0.6784,17.8119 10.8543,1.4843 c 5.8792,0.8906 11.7586,0.8906 13.1154,-0.2968 1.5829,-1.1875 2.2613,-19.5931 1.809,-53.7326 -0.2261,-28.499 0.2262,-53.4357 1.1307,-55.2168 2.4874,-5.3436 12.2109,-4.1561 14.2461,1.7811 1.1307,2.6718 1.3568,27.0148 0.6784,54.0295 -0.6784,27.0147 -0.6784,49.8733 0,51.0607 0.6784,1.1874 14.4723,2.9686 30.7536,4.1561 23.9697,1.4844 30.0752,1.1875 31.6581,-2.078 2.7135,-5.3436 3.1657,-46.9047 0.6783,-48.9827 -4.0703,-3.2656 -23.2913,15.1401 -21.03,19.8899 0.6785,1.4843 4.5226,2.6718 8.8191,2.6718 9.7235,0 11.7587,4.1561 5.201,10.0934 -6.7839,6.531 -17.1859,5.9373 -26.0049,-1.1875 -9.2713,-7.4216 -12.4371,-15.1401 -12.4371,-32.0614 0,-12.1714 1.1306,-15.1401 8.3667,-23.7492 7.9146,-9.4996 9.0452,-10.0934 22.1607,-8.9059 l 14.02,0.8906 1.1307,-14.8432 c 1.1306,-14.2495 1.3568,-14.8433 7.9145,-14.8433 h 6.7839 v 53.4357 c 0,29.3896 0.9045,55.2168 1.8091,56.998 1.8089,3.8593 9.9496,4.453 18.3164,1.7812 4.0704,-1.4843 4.2964,-4.4529 3.1658,-54.6231 -1.3568,-56.998 -0.6784,-60.5604 9.9497,-58.4823 l 5.201,0.8905 -0.6785,53.7325 c -0.6783,35.9207 0,54.6232 1.583,55.8107 3.1658,2.6717 58.7935,5.3435 63.9946,2.9686 2.2613,-0.8906 4.0702,-3.5624 4.0702,-5.6405 0,-6.531 -7.2361,-10.0934 -17.4119,-8.3122 -10.4019,1.7812 -24.1958,-5.3435 -28.04,-14.2495 -2.7136,-7.1247 -3.1658,-22.5617 -0.9045,-32.3582 3.618,-16.3276 16.0551,-27.0147 33.9194,-29.6865 10.8542,-1.4843 11.3064,-1.7812 13.5677,-13.062 2.0352,-8.6091 4.2964,-12.4684 8.819,-14.5464 13.1156,-5.6404 16.5075,4.7498 7.0101,21.3742 -4.9749,9.2028 -5.201,10.6872 -2.2614,18.4057 6.3317,15.7338 3.1659,26.4209 -7.6883,26.4209 -7.4622,0 -10.8542,-2.9686 -11.7588,-10.0934 -1.5829,-10.6871 -8.1406,-12.7652 -17.1858,-5.9373 -9.4974,7.1248 -13.7938,20.7805 -9.7235,30.8739 2.0352,5.0467 5.201,5.9373 24.4219,6.5311 l 21.9345,0.8906 0.6784,13.9526 0.6784,13.9527 9.4975,0.8905 c 8.819,0.8907 9.4974,1.4844 9.4974,9.4997 v 8.6091 l -208.0389,0.2968 -208.0389,0.2969 -13.7939,29.6865 c -7.4623,16.3276 -15.1506,29.9833 -16.9597,30.5771 -1.809,0.2969 -5.4271,-2.3749 -8.1406,-5.9373 z m 281.5309,-126.4644 c 11.9848,-11.8746 7.9145,-21.3743 -5.8794,-13.6558 -7.9145,4.1561 -12.6633,15.1401 -9.0452,21.0774 2.4875,4.1561 3.8443,3.5624 14.9246,-7.4216 z"
       id="path195"
       style="fill:#000080;stroke-width:0.999999" />
    <path
       d="m 433.02927,7839.9223 c -9.0452,-6.8279 -12.211,-16.0307 -11.3065,-32.6551 l 0.6784,-15.437 -99.4969,-0.5937 c -54.7233,-0.2969 -100.8536,-0.5937 -102.2104,-0.5937 -1.5829,-0.2969 -2.9397,-3.5624 -2.9397,-7.4217 0,-5.6404 1.5829,-7.4215 9.7236,-9.4996 9.4974,-2.6718 9.4974,-2.6718 10.1758,-16.9213 0.9045,-16.9213 -2.0352,-22.8586 -10.8542,-22.8586 -12.4372,0 -13.5678,2.0781 -13.5678,22.8586 0,22.2649 -2.0351,28.7959 -11.3064,35.03 -9.2713,6.2342 -23.0652,1.7812 -26.6833,-8.9059 -5.6533,-16.3276 -0.9045,-33.5457 8.1407,-29.9834 3.618,1.4844 4.9748,4.453 4.9748,10.3903 0,4.7498 1.3568,9.7965 2.9397,11.8746 5.201,5.3436 8.3668,-2.6718 8.3668,-20.7805 0,-17.5151 -1.5829,-20.4837 -11.5326,-20.4837 -8.1407,0 -4.9749,-12.7652 6.7839,-27.9053 12.8893,-16.6244 17.6381,-16.6244 18.7687,0.2969 l 0.6783,11.2808 h 11.3065 11.3065 v -28.2021 c 0,-27.3116 0.2261,-28.2022 5.4271,-29.0927 2.9397,-0.5938 6.3317,0.2968 7.4623,1.7811 1.5829,2.0781 2.2613,24.0461 2.0351,56.7012 l -0.4522,53.4357 5.6532,2.078 c 3.3919,0.8906 8.5929,0.8906 11.7588,0 l 5.8793,-2.078 -0.6784,-52.5451 c -0.4523,-28.7959 0,-54.3262 0.9045,-56.1075 2.7136,-5.6404 12.4371,-4.7498 14.6984,1.4843 1.1307,2.6718 1.1307,27.0148 0.2262,54.0295 -0.9045,27.0147 -0.6785,50.1701 0.4522,51.6545 2.7136,3.8592 49.7484,3.2655 51.5575,-0.8907 0.9045,-1.7812 0.9045,-9.4996 0.2261,-17.2181 -1.1307,-13.3589 -1.5829,-14.2495 -8.3667,-15.1401 -6.1055,-0.8907 -7.6885,0.5937 -10.6282,8.0153 -2.0351,4.7498 -4.5226,9.4997 -5.8793,10.6871 -3.1658,2.6718 -11.3065,-3.8592 -11.3065,-9.4996 0,-4.1561 16.2814,-37.405 34.8239,-71.2475 5.8794,-10.3904 8.1407,-12.4684 13.7939,-11.8747 11.7588,1.1875 10.402,11.5777 -4.2965,31.7645 -7.0099,9.4997 -12.6632,18.7026 -12.6632,20.4838 0,1.7811 4.0704,6.531 8.819,10.3902 9.7237,8.0154 12.8894,18.9993 10.402,34.4363 -1.1307,6.2342 -0.6783,9.2028 1.583,10.0935 1.5828,0.5936 18.9948,2.078 38.4419,2.9686 33.241,1.7812 35.5022,1.4843 36.8591,-3.5624 2.9397,-13.062 -0.2262,-15.437 -22.613,-15.437 -17.4119,0 -21.7084,-0.8906 -26.6832,-5.9373 -12.211,-12.7651 -9.9497,-36.2175 6.3316,-65.3102 11.0803,-19.5931 15.6029,-23.4524 21.2562,-18.7025 6.7838,5.6405 5.2009,12.7652 -5.201,26.7178 -10.402,13.3589 -16.7336,31.7646 -14.2461,40.3736 0.9045,3.2655 5.6532,4.7498 16.7335,5.6405 25.1004,1.7812 23.7436,3.8592 23.0651,-36.5144 -0.6783,-38.8893 0.4523,-43.3423 10.6282,-40.0767 l 6.1054,2.078 -1.3567,52.842 c -0.9045,37.7018 -0.4523,54.0293 1.3567,56.4043 3.392,4.4529 18.5426,4.156 21.2561,-0.2969 1.1307,-2.3749 1.3568,-24.9367 0.6785,-54.3263 -0.9045,-29.9833 -0.6785,-51.9513 0.6783,-54.0294 1.1307,-2.078 4.5226,-3.8592 7.2362,-3.8592 9.0452,0 9.7236,4.7498 7.9146,57.8886 -1.3569,43.6391 -1.1307,51.0608 2.035,54.3263 1.8091,2.0781 4.9749,2.9686 6.5578,2.0781 1.8091,-0.8907 8.5929,-1.4844 15.3768,-1.4844 11.7587,0 12.6632,-0.5937 15.3768,-9.4997 2.2613,-6.8279 2.4874,-11.2808 0.6784,-16.3275 -2.2613,-6.5311 -9.7235,-11.8746 -12.2109,-8.6091 -0.6785,0.8906 -3.1659,0.2969 -5.4272,-1.4844 -3.3919,-2.078 -4.0703,-4.7498 -2.9397,-10.9839 2.9397,-15.437 11.0804,-30.874 19.4472,-36.5144 10.1758,-6.8279 17.1858,-7.1247 25.7787,-1.4843 8.1407,5.6404 10.1758,3.5624 9.7235,-9.7965 -0.4522,-5.9373 0.2262,-12.4683 1.1307,-14.5464 2.0351,-4.453 11.7587,-4.7499 13.7939,-0.5938 0.9045,1.7812 1.3567,27.0147 1.1306,56.4044 l -0.2261,53.1388 7.4622,0.8905 c 6.5578,0.8907 7.4623,1.7812 7.4623,9.7966 v 8.9059 l -53.3665,-1.1874 -53.3665,-0.8906 -3.8442,13.3589 c -5.201,18.1087 -11.3064,27.6084 -21.9345,34.7332 -9.9497,6.8279 -18.9949,7.4216 -26.4571,2.078 z m 28.4922,-27.6084 c 3.8442,-5.3435 7.2362,-12.7652 7.2362,-16.0307 0,-5.3436 -1.3568,-5.9373 -15.6029,-5.9373 -16.7336,0 -18.3165,1.4843 -18.3165,17.2182 0.2261,20.7805 13.3416,23.1554 26.6832,4.7498 z m 97.4617,-39.483 c 2.2613,-2.078 2.9398,-9.2028 2.7136,-28.7959 -0.2261,-24.3429 -0.9045,-27.0147 -6.1055,-32.952 -6.7839,-8.0153 -18.0904,-8.9059 -25.3265,-2.0781 -7.0099,6.2342 -6.1054,13.359 2.4874,20.4837 9.0452,7.4216 12.4372,19.2962 9.0452,31.1708 -1.809,5.9373 -1.809,9.2028 0,11.5778 2.9397,3.8592 12.8893,4.156 17.1858,0.5937 z"
       id="path197"
       style="fill:#000080;stroke-width:0.999999" />
    <path
       d="m 1271.7427,7832.2039 c -1.8091,-1.4844 -3.1659,-7.1248 -3.1659,-12.1715 0,-10.984 3.8442,-15.1401 13.1155,-14.2495 6.1056,0.8906 6.7839,2.078 7.4623,12.4683 0.9045,12.1715 -1.8091,16.6244 -9.7236,16.6244 -2.4874,0 -5.8794,-1.1874 -7.6883,-2.6717 z"
       id="path199"
       style="fill:#000080;stroke-width:0.999999" />
    <path
       d="m 1190.11,7790.9396 c -3.1658,-1.4843 -2.7136,-11.2808 0.6783,-14.8432 1.583,-1.7812 11.5327,-3.5624 21.9347,-4.1561 l 19.2208,-0.8906 0.6785,-14.2495 c 1.1307,-23.7492 -7.0101,-30.2803 -15.1507,-12.1715 -5.6533,12.4684 -14.4723,13.3589 -15.6029,1.7812 -0.6784,-6.531 26.6833,-64.1228 37.9897,-80.1535 4.5226,-6.2342 5.4271,-6.531 9.7236,-2.6718 8.3667,7.1248 7.236,13.359 -6.1056,31.7645 -7.01,9.4997 -12.6632,18.4057 -12.6632,19.89 0,1.1874 2.9398,4.7498 6.7839,7.4216 7.4623,5.6405 29.8491,4.453 33.6932,-1.7811 1.3569,-2.0781 1.583,-12.7652 0.4524,-27.0148 -2.0352,-27.6084 -1.583,-30.577 5.6532,-32.9519 11.3064,-3.8593 11.9848,0.5937 10.628,58.4823 -1.1307,44.5298 -0.9045,53.1388 1.8091,53.4357 12.211,0.8906 43.1907,-0.2969 44.9997,-1.7812 1.3567,-0.8906 2.2612,-8.3122 2.2612,-16.0307 0,-22.8586 -8.1405,-28.2022 -16.2812,-10.6871 -4.9749,11.2808 -9.7236,12.4683 -14.02,3.8592 -2.7135,-5.9373 -1.1307,-10.0934 18.3164,-48.389 19.221,-38.2955 21.03,-40.6704 27.8139,-36.2175 9.4975,6.2342 8.1407,13.0621 -5.427,30.874 -7.0101,9.2028 -12.6633,17.8119 -12.6633,19.2962 0,1.4843 2.2612,5.3436 5.201,8.6091 3.8441,4.156 7.2361,5.0467 15.1506,3.8592 17.8642,-2.6718 19.6733,-3.8592 25.5526,-15.7338 6.5578,-13.0621 21.7085,-24.0461 32.7888,-24.0461 4.0703,0 11.0803,2.0781 15.6029,4.453 13.3416,7.4216 14.4722,6.2342 13.7939,-10.6872 -0.4523,-11.8745 0.2261,-16.0306 3.392,-18.7024 2.7134,-2.3749 4.9748,-2.3749 7.9144,0 3.3919,2.9686 3.8442,8.3122 2.9397,54.9199 -0.6783,41.2643 -0.2261,52.5452 2.2613,55.2169 2.7136,2.9687 11.0803,3.2655 21.03,1.1875 1.1307,0 1.3568,-22.2649 0.4523,-53.4357 -1.1307,-45.1234 -0.9045,-53.4356 2.0351,-56.7012 3.8443,-4.1561 13.7939,-1.7811 15.1507,3.5624 0.4523,2.0781 0,25.5304 -1.1306,52.2482 -1.3568,31.7645 -1.3568,49.5764 0,51.3576 1.3567,1.7812 16.9596,3.2655 35.9545,3.2655 l 33.6933,0.2969 v -11.5777 -11.5778 l -23.2913,-0.2968 c -18.3166,-0.2969 -24.1959,-1.4843 -26.9094,-5.0467 -3.392,-4.453 -3.1659,-5.9373 4.0703,-19.89 7.9145,-15.7338 16.7336,-21.9679 20.3516,-14.5463 0.9045,2.3749 1.3568,6.8279 0.6784,10.0934 -1.809,10.3903 2.0352,13.6558 14.02,12.7652 l 11.0804,-0.8906 0.2261,-31.4677 c 0.2261,-38.2956 1.1306,-41.8579 9.2713,-40.6704 l 6.3316,0.8905 v 54.92 54.92 l 5.6532,0.8906 c 7.2362,1.4843 11.3065,5.9373 11.3065,12.4683 0,2.9687 -1.3568,5.9373 -2.7136,6.531 -4.5225,2.3749 -166.4311,0 -169.1446,-2.078 -4.7487,-3.8593 -1.1306,-10.984 6.7839,-14.5464 l 7.9145,-3.2655 0.6784,-20.7806 c 0.6783,-27.6084 -2.0352,-34.1394 -17.4121,-40.9673 -10.1758,-4.453 -13.5676,-4.7498 -18.7686,-1.7812 -8.5929,4.453 -7.9145,7.4216 2.4874,14.5464 12.211,8.0153 16.0553,16.3276 16.0553,34.1394 -0.2262,11.8746 -1.3569,16.6245 -6.784,24.9367 -5.4271,8.3122 -8.5929,10.3902 -17.412,11.2809 -9.4973,1.4843 -11.9848,0.2968 -18.3164,-6.5311 -12.8894,-14.2495 -8.1407,-40.0767 7.6884,-40.0767 8.819,0 9.7235,4.1561 2.9397,13.6558 -6.1055,8.609 -4.2965,16.0307 4.2964,16.0307 14.2462,0 18.9949,-23.1555 7.9145,-37.1081 -8.5929,-10.3903 -15.6029,-12.4683 -21.2561,-5.6405 -3.1658,3.5624 -9.2713,5.6405 -19.221,6.5311 -8.5929,0.8905 -14.4723,2.6717 -14.6984,4.7498 -1.809,25.2335 -0.2261,33.5457 6.3316,30.2802 7.6884,-4.1561 18.7687,9.2028 11.9849,14.5464 -2.2613,1.7812 -174.5718,3.8592 -178.6421,2.078 z m 80.0497,-19.2962 c 2.9398,-2.9686 3.8443,-7.1247 3.1658,-16.9213 l -0.6783,-13.3589 h -12.4371 -12.4372 l -0.6783,14.5464 c -0.4524,9.4997 0.2261,15.4369 2.2613,16.9213 4.5226,3.8592 16.2812,3.2655 20.8038,-1.1875 z"
       id="path201"
       style="fill:#000080;stroke-width:0.999999" />
    <path
       d="m 160.31737,7554.0416 c -0.9045,-2.9687 -0.9045,-14.2496 0,-25.5305 0.9046,-10.9839 0.9046,-20.1868 0.4522,-20.1868 -0.6783,0 -4.9748,2.0781 -9.4973,4.453 -16.5075,9.2028 -27.5879,-2.078 -29.8492,-30.2802 -1.809,-22.8586 0.4523,-42.1548 5.8794,-50.7639 5.6533,-8.9059 17.8642,-11.5777 26.9094,-5.6404 5.8794,3.8593 7.2362,3.8593 9.4975,0.2969 1.5829,-2.375 4.9748,-4.1562 7.4622,-3.5624 4.7487,0.8906 4.7487,2.0781 4.7487,67.6852 v 66.7946 l -7.01,0.8905 c -5.2009,0.5938 -7.4622,-0.5937 -8.5929,-4.156 z m -8.819,-56.4044 c 8.5929,-2.9687 12.211,-25.8272 7.0099,-44.8266 -3.1657,-11.2808 -9.9497,-15.1401 -17.4119,-9.7965 -4.0703,2.6718 -4.7487,5.9373 -4.7487,24.3429 0,15.437 0.9045,22.5617 3.8443,26.7178 4.0702,5.9373 4.2963,5.9373 11.3064,3.5624 z"
       id="path203"
       style="fill:#000080;stroke-width:0.999999" />
    <path
       d="m 981.84487,7553.1509 c -3.8441,-4.156 -5.6532,-9.4996 -6.5577,-21.3742 -0.9045,-13.9527 -1.809,-16.0307 -6.3317,-16.9214 -6.5577,-1.1874 -6.1054,-11.8746 0.6785,-16.6244 6.7839,-5.0467 6.7839,-5.0467 5.6532,-37.7018 -0.6784,-17.8119 -0.4523,-32.6551 0.9045,-34.7332 1.1307,-2.078 5.201,-3.5624 9.0452,-2.9686 l 7.01,0.8906 v 35.3269 c 0,35.6237 0,35.6237 5.65316,37.4049 4.07027,1.1875 5.87937,4.1562 6.33157,9.4997 0.6784,6.8279 -0.2261,8.0154 -5.65317,8.9059 -5.65316,0.8907 -6.33156,2.0781 -6.33156,10.9841 0,8.6091 0.90446,10.3902 7.91443,13.3589 4.2965,1.7812 7.9146,5.0467 7.6885,7.1247 -0.2261,1.7812 -0.4522,5.6405 -0.4522,8.0154 -0.6785,6.8279 -18.99493,5.9373 -25.55273,-1.1875 z"
       id="path205"
       style="fill:#000080;stroke-width:0.999999" />
    <path
       d="m 1215.6626,7555.229 c -1.1307,-2.3749 -1.3568,-31.1708 -0.6784,-67.6852 l 1.1307,-63.8259 5.2009,-0.8906 c 9.9497,-1.7812 11.5327,3.2655 10.1758,33.2489 -1.5829,32.3582 0.6784,40.3735 10.6281,40.3735 10.1758,0 12.2109,-8.0153 10.4019,-41.8579 l -1.5829,-29.0927 5.8793,-2.0781 c 12.2111,-3.8592 12.8895,-1.7812 11.985,40.3736 -0.6784,34.4363 -1.1307,39.1861 -5.4272,44.8266 -5.4271,6.8279 -17.6381,8.3122 -25.3264,2.9686 -2.4875,-1.7812 -5.4271,-3.2655 -6.3316,-3.2655 -0.6785,0 -0.6785,9.4997 0,21.0775 1.809,22.8586 -0.2262,29.3896 -8.8191,29.3896 -2.7135,0 -6.1055,-1.7812 -7.2361,-3.5624 z"
       id="path207"
       style="fill:#000080;stroke-width:0.999999" />
    <path
       d="m 1426.189,7555.5259 c -1.8092,-4.1562 -1.583,-126.4645 0.2261,-130.3237 1.8089,-3.8592 11.7586,-3.8592 13.5676,0 1.583,3.2655 3.1659,124.0895 1.583,130.0268 -1.1307,4.4529 -13.1155,4.7498 -15.3767,0.2969 z"
       id="path209"
       style="fill:#000080;stroke-width:0.999999" />
    <path
       d="m 1877.769,7552.2604 c -0.9045,-3.8593 -1.1306,-14.2496 -0.2261,-23.1555 0.9045,-8.906 1.1306,-17.2182 0.2261,-18.7025 -0.9045,-1.1875 -4.9749,0 -9.0452,2.6717 -10.402,6.8279 -20.1255,2.6719 -26.231,-10.687 -3.618,-8.3123 -4.5225,-15.437 -4.5225,-36.5144 0,-25.8272 0,-26.421 7.4622,-35.0301 8.1407,-9.7965 18.9949,-11.2808 26.9094,-4.1561 4.0703,3.8592 4.9748,3.8592 7.4622,0 3.1659,-5.0467 10.402,-5.9373 12.211,-1.7811 0.6785,1.4843 1.583,31.7645 1.8091,67.3882 l 0.6784,65.0135 -7.4623,0.8905 c -5.8794,0.8907 -7.6884,-0.2968 -9.2713,-5.9372 z m -4.7487,-58.7793 c 6.5577,-8.6091 6.3316,-37.7018 0,-46.9046 -10.6281,-14.8433 -20.3516,-3.5624 -20.3516,23.7491 0,17.8119 4.7487,29.0928 12.437,29.0928 1.8091,0 5.4271,-2.6718 7.9146,-5.9373 z"
       id="path211"
       style="fill:#000080;stroke-width:0.999999" />
    <path
       d="m 2088.7475,7555.8227 c -2.9396,-3.8592 -1.5828,-127.9487 1.3569,-131.808 1.1306,-1.4843 4.7487,-1.1874 8.819,0.8907 4.7487,2.6717 7.9145,2.9686 11.0803,0.5937 6.7839,-4.7499 16.7336,-3.8593 22.8391,1.4843 7.6884,7.1247 11.5326,22.2648 11.5326,45.1234 0,16.3276 -1.1306,22.5617 -4.9749,30.2803 -6.7839,13.062 -15.3767,16.9213 -24.648,10.687 -11.3065,-7.4215 -11.7588,-6.531 -10.402,16.3277 0.6784,11.2808 0.6784,22.8586 0,25.2334 -1.3568,4.7499 -12.211,5.6405 -15.603,1.1875 z m 35.2763,-62.3416 c 3.618,-4.7498 4.5226,-9.7966 4.5226,-24.3429 0,-26.7179 -9.4975,-37.405 -20.3517,-23.1555 -3.618,4.7499 -4.5226,9.7966 -4.5226,23.7492 0,18.4056 4.7488,29.6865 12.4371,29.6865 1.8091,0 5.4271,-2.6718 7.9146,-5.9373 z"
       id="path213"
       style="fill:#000080;stroke-width:0.999999" />
    <path
       d="m 2264.45,7554.6352 c -1.809,-2.6717 -2.0352,-10.9839 -1.1306,-25.5303 1.3567,-17.8119 1.1306,-21.3743 -1.5829,-19.89 -16.0552,8.6091 -20.1255,9.2028 -26.4572,2.9687 -7.4622,-7.1248 -11.5325,-21.3743 -11.5325,-40.9674 -0.4523,-33.2488 9.0452,-50.7638 25.5526,-48.092 4.7487,0.8905 9.4974,3.2655 10.628,5.3435 1.3568,2.9687 2.7136,2.9687 6.1055,-1.1875 4.2965,-5.0467 14.02,-7.1247 14.02,-2.6717 0.2262,10.9839 0.2262,127.6519 0.2262,130.6205 -0.2262,4.7498 -12.6633,4.4529 -15.8291,-0.5938 z m -6.1055,-59.076 c 4.5226,-4.453 7.4623,-26.7179 4.9749,-38.8893 -2.9397,-15.1401 -13.3417,-21.3743 -20.3517,-11.8746 -2.7135,3.2655 -3.618,10.3902 -3.618,24.9366 0,17.8119 0.6783,21.0774 4.9748,24.9366 6.1055,5.6405 8.819,5.9374 14.02,0.8907 z"
       id="path215"
       style="fill:#000080;stroke-width:0.999999" />
    <path
       d="m 192.87997,7551.6666 c -4.2965,-7.1247 -1.809,-17.8119 5.201,-20.7805 7.6884,-3.5624 13.7939,0.2968 14.6984,9.7965 1.1307,8.906 -3.3919,15.1401 -10.8542,15.1401 -3.3919,0 -7.4623,-2.078 -9.0452,-4.1561 z"
       id="path217"
       style="fill:#000080;stroke-width:0.999999" />
    <path
       d="m 603.07847,7551.6666 c -0.6785,-2.3749 -0.9046,-8.0153 -0.4523,-12.7652 0.4523,-6.531 2.0351,-8.6091 7.01,-9.2028 3.6181,-0.5937 7.9145,0.5937 9.7235,2.6718 3.8443,4.1561 4.0704,15.1401 0.4523,19.89 -3.8442,5.0467 -15.1507,4.4529 -16.7335,-0.5938 z"
       id="path219"
       style="fill:#000080;stroke-width:0.999999" />
    <path
       d="m 18.308276,7544.245 c -2.2613,-4.1561 -2.7136,-18.4056 -1.8092,-62.9354 l 1.1307,-57.5917 6.5578,-0.8906 c 3.6181,-0.5938 7.2361,0 8.3668,1.4843 2.4874,3.2655 3.618,116.6679 1.1306,122.0114 -2.4874,5.3436 -11.9848,4.1562 -15.3767,-2.078 z"
       id="path221"
       style="fill:#000080;stroke-width:0.999999" />
    <path
       d="m 399.33597,7546.323 c -0.9045,-2.078 -1.8089,-30.2801 -1.8089,-62.3416 0,-46.3109 0.6783,-59.076 2.9395,-60.2635 4.5227,-2.3749 14.0201,-1.7812 14.0201,0.8906 0.2261,6.531 0.4522,118.449 0.2261,121.7145 -0.2261,1.7812 -3.1658,3.5624 -6.7839,3.5624 -3.8442,0 -7.4623,-1.7812 -8.5929,-3.5624 z"
       id="path223"
       style="fill:#000080;stroke-width:0.999999" />
    <path
       d="m 1036.3421,7542.4638 c -2.9397,-9.7965 1.3568,-16.0307 11.9848,-16.9213 l 9.4974,-0.8906 v -50.467 -50.467 h 7.9146 7.9145 l 0.4523,47.4983 c 0.2261,26.1242 0.4522,48.9827 0.4522,51.0608 0.2261,2.0781 4.2964,3.8592 9.4975,4.4529 10.8541,0.8907 16.0551,8.0154 11.9848,16.3276 -1.809,4.1562 -6.7839,4.7499 -30.0752,5.0467 -26.0049,0.2969 -28.04,0 -29.6229,-5.6404 z"
       id="path225"
       style="fill:#000080;stroke-width:0.999999" />
    <path
       d="m 1697.544,7546.0262 c -0.4522,-2.0781 -0.6784,-30.2802 -0.4522,-62.9354 l 0.6783,-59.3729 h 9.0452 9.0451 v 26.7178 26.7178 h 13.5678 13.5678 v -26.7178 -26.7178 h 7.9145 7.9145 v 62.3416 62.3416 l -5.201,0.8906 c -9.7235,1.7812 -11.9848,-4.1561 -11.3064,-28.7959 l 0.6784,-22.5617 h -13.5678 -13.5678 l 0.6784,21.6711 c 0.4524,13.9526 -0.2261,23.1555 -1.809,25.8273 -3.3919,5.3435 -15.6029,5.9372 -17.1858,0.5937 z"
       id="path227"
       style="fill:#000080;stroke-width:0.999999" />
    <path
       d="m 566.44547,7536.2296 c -2.7135,-2.3749 -4.9748,-7.4216 -4.9748,-11.2809 0,-4.4529 -2.0352,-8.0153 -5.8794,-10.0934 -7.4623,-4.7498 -6.7839,-16.0306 1.3568,-18.4056 5.4271,-1.7812 5.4271,-2.078 4.7487,-28.7958 -0.9045,-36.5144 2.7135,-45.4204 18.0904,-45.4204 14.4722,0 17.1858,14.2496 4.0703,20.4837 -6.5578,2.9687 -6.5578,2.9687 -6.5578,28.2022 v 25.2335 l 6.3316,0.8906 c 4.7487,0.5937 6.3317,2.6717 6.7839,8.9059 0.6784,6.8279 -0.2261,8.0154 -5.6532,8.9059 -4.7488,0.5938 -6.1055,2.375 -5.8794,6.8279 0.9046,9.4997 -1.3568,19.2963 -4.5226,19.2963 -1.5829,0 -5.201,-2.0781 -7.9145,-4.7499 z"
       id="path229"
       style="fill:#000080;stroke-width:0.999999" />
    <path
       d="m 647.85207,7536.2296 c -2.7136,-2.3749 -4.9749,-7.4216 -4.9749,-11.2809 0,-4.4529 -2.0352,-8.0153 -5.8794,-10.3902 -7.01,-4.1561 -6.5577,-12.1714 1.1307,-16.9213 4.9748,-3.2655 5.2009,-5.0467 5.6532,-35.3269 0.2262,-27.6084 0.6784,-32.0614 4.5225,-35.9206 5.4272,-5.0467 19.6734,-5.6405 23.5176,-0.5938 3.3919,4.453 -0.4523,13.6558 -7.6885,17.2182 -5.2009,2.6718 -5.4271,4.1561 -5.4271,27.9053 v 25.2335 l 6.3317,0.8906 c 4.7487,0.5937 6.3316,2.6717 6.7839,8.9059 0.6783,6.8279 -0.2261,8.0154 -5.6533,8.9059 -4.9748,0.5938 -6.3316,2.375 -6.5578,8.3123 -0.4521,15.7338 -0.9045,17.8119 -3.8441,17.8119 -1.5829,0 -5.201,-2.0781 -7.9145,-4.7499 z"
       id="path231"
       style="fill:#000080;stroke-width:0.999999" />
    <path
       d="m 763.17797,7536.2296 c -2.7135,-2.3749 -4.9749,-7.4216 -4.9749,-11.2809 0,-4.4529 -2.0351,-8.0153 -5.8794,-10.3902 -7.0099,-4.1561 -6.5577,-12.1714 1.1307,-16.9213 4.9749,-3.2655 5.201,-5.0467 5.6532,-34.7332 0,-19.8899 1.1307,-32.6551 2.9397,-35.03 1.3567,-1.7812 7.6884,-4.1561 13.7939,-5.0467 9.0452,-0.8906 11.3064,-0.2969 12.4371,3.8592 2.2613,6.8279 -2.0352,15.7338 -7.9145,16.9213 -4.9748,0.8906 -5.201,2.3749 -5.8794,27.0147 -0.6784,25.8272 -0.6784,25.8272 4.9749,25.8272 3.3919,0 6.7838,2.375 8.3668,6.2342 2.9396,7.4216 0.9045,10.6871 -7.0101,12.1714 -4.0702,0.5938 -5.427,2.375 -5.2009,6.8279 0.9045,9.4997 -1.3568,19.2963 -4.5226,19.2963 -1.5829,0 -5.201,-2.0781 -7.9145,-4.7499 z"
       id="path233"
       style="fill:#000080;stroke-width:0.999999" />
    <path
       d="m 55.167276,7514.5585 c -1.8091,-1.4844 -2.4874,-14.8433 -2.0351,-46.6078 l 0.6783,-44.2328 7.4622,-0.8906 c 8.3668,-1.1875 7.6885,-3.5624 7.2362,35.3269 -0.2262,22.8586 0.4523,29.3896 3.392,33.5457 4.2964,5.6405 13.5678,6.2342 16.2813,1.1875 0.9045,-2.0781 1.809,-18.4057 1.809,-36.5144 v -32.6551 l 6.557801,-0.8906 c 3.618003,-0.5938 7.462203,0.2969 8.819003,2.0781 3.39189,4.4529 2.03519,64.7164 -1.8091,76.591 -4.974803,15.437 -14.698304,19.5931 -26.909304,11.2809 -3.8442,-2.6718 -7.4623,-3.5624 -9.0452,-2.078 -4.2964,4.4529 -9.4974,5.9372 -12.4371,3.8592 z"
       id="path235"
       style="fill:#000080;stroke-width:0.999999" />
    <path
       d="m 234.03547,7513.9648 c -4.0703,-2.0781 -5.201,-4.453 -4.5225,-10.6872 0.6783,-8.9059 2.0351,-9.2028 18.0903,-5.3435 7.2361,2.078 8.5929,1.1875 12.211,-5.9373 4.9748,-10.0934 2.0351,-13.359 -12.6633,-13.359 -15.1506,0 -23.2913,-9.4996 -23.5174,-27.3115 -0.2262,-10.6871 0.9045,-15.437 5.2009,-21.3742 6.1056,-8.3123 17.1859,-10.3903 25.5527,-4.453 3.392,2.3749 6.1054,2.3749 10.1757,0 3.1659,-2.0781 7.6885,-2.6718 9.9498,-1.7812 4.0703,1.7812 4.2965,4.453 3.1658,37.9987 -1.3568,38.8893 -3.6181,47.4983 -13.7939,52.545 -7.01,3.5624 -22.8391,3.5624 -29.8491,-0.2968 z m 28.4923,-52.5451 c 0.9046,-8.6091 -4.5226,-20.1868 -10.6281,-22.2649 -5.6532,-1.7812 -13.7939,5.6405 -13.7939,12.7652 0,7.7185 11.0804,18.4056 17.8643,17.2182 4.0703,-0.5938 6.1055,-2.9687 6.5577,-7.7185 z"
       id="path237"
       style="fill:#000080;stroke-width:0.999999" />
    <path
       d="m 295.09037,7514.8553 c -2.0351,-2.078 -2.7135,-13.3589 -2.2613,-46.9046 l 0.6784,-44.2328 h 7.9146 7.9144 v 31.4676 c 0,33.8426 2.0353,41.2642 11.3065,41.2642 9.0452,0 10.6281,-6.2341 9.9497,-38.5924 -0.6783,-32.6551 0.4523,-36.5143 10.6281,-35.03 l 6.5577,0.8906 -0.9045,38.5924 c -0.4523,26.421 -1.5829,40.6704 -3.8442,45.1235 -4.2964,8.9059 -16.7335,11.5777 -26.0048,5.6403 -6.3317,-4.156 -7.6885,-4.156 -11.7587,-0.2968 -5.6533,5.0467 -6.1055,5.3436 -10.1759,2.078 z"
       id="path239"
       style="fill:#000080;stroke-width:0.999999" />
    <path
       d="m 435.06437,7513.0741 c -1.809,-2.6717 -2.4874,-17.8118 -2.0351,-46.6077 l 0.6784,-42.7485 6.5576,-0.8906 c 3.6182,-0.5938 7.2362,0.5937 8.1408,2.6718 1.1306,1.7811 1.3567,16.3275 0.6783,32.0614 -1.1306,24.6397 -0.6783,29.3896 2.4875,33.8425 4.5225,5.9374 13.7938,6.5311 16.5074,1.4844 0.9045,-2.0781 1.5829,-18.4057 1.8091,-36.5144 v -32.6551 l 6.5577,-0.8906 c 3.6181,-0.5938 7.4622,0.2969 8.819,2.0781 3.392,4.4529 2.0352,64.7164 -1.809,76.591 -4.7488,15.1401 -14.6984,19.5931 -26.231,11.5777 -4.9748,-3.2655 -6.7839,-3.2655 -11.3065,0 -7.01,5.0468 -7.6884,5.0468 -10.8542,0 z"
       id="path241"
       style="fill:#000080;stroke-width:0.999999" />
    <path
       d="m 513.98347,7515.1522 c -5.4271,-2.6717 -11.7587,-10.6871 -13.7938,-17.8118 -2.9397,-10.6872 1.5828,-22.5618 12.437,-31.4677 13.5678,-11.2809 16.2813,-15.7339 12.6633,-21.3743 -2.0351,-3.2655 -6.3316,-4.4529 -14.4723,-3.8592 -9.4974,0.8906 -11.5326,0 -12.211,-4.453 -1.5828,-9.7965 3.8442,-13.9527 17.6381,-13.9527 11.0804,0 14.4724,1.4844 20.3516,7.7186 6.1056,6.8278 7.0101,9.4996 6.3317,20.1867 -0.6784,11.2809 -1.8091,13.0621 -13.5678,23.4523 -17.8642,15.437 -17.4119,28.4991 0.6784,23.7493 6.5577,-1.4844 10.8542,1.7812 11.0803,8.609 0.2262,8.6091 -16.5074,14.2495 -27.1355,9.2028 z"
       id="path243"
       style="fill:#000080;stroke-width:0.999999" />
    <path
       d="m 686.52017,7515.1522 c -4.2965,-2.0781 -4.0704,-66.2008 0.2261,-79.5598 3.6181,-11.2808 10.8541,-15.4369 21.2561,-11.8745 6.3316,2.078 10.402,2.3749 21.9346,0.8906 l 6.7838,-0.8906 0.6785,43.936 0.6783,43.6391 -5.6532,3.2655 c -11.0804,6.8279 -12.6633,2.9687 -12.6633,-32.3583 0,-35.9206 -1.5828,-40.3736 -12.8894,-38.5924 l -6.3315,0.8906 -0.2261,32.952 c -0.2262,18.1088 -0.9045,34.4363 -1.8092,36.5144 -1.5828,3.2655 -7.0099,3.8592 -11.9847,1.1874 z"
       id="path245"
       style="fill:#000080;stroke-width:0.999999" />
    <path
       d="m 813.60477,7513.6679 c -9.9497,-7.7185 -16.9597,-26.7178 -16.9597,-45.1235 0,-15.4369 8.3668,-37.7018 15.8291,-42.7485 8.5929,-5.3435 33.9193,-3.5624 37.0851,3.2655 3.6181,7.4217 -1.1306,15.7339 -7.9146,13.9527 -12.2109,-2.9686 -22.8389,-1.1875 -26.0047,4.453 -6.5578,11.5777 -3.1658,14.8432 14.9244,15.1401 9.2713,0 18.3166,0.2968 19.8995,0.5937 6.3315,1.1875 0.9045,35.03 -7.6885,45.4203 -6.1054,7.4217 -22.6128,10.3903 -29.1706,5.0467 z m 18.7687,-17.8119 c 1.5829,-2.078 2.7136,-6.531 2.7136,-10.0934 0,-5.3436 -1.5829,-6.8279 -8.8191,-7.7185 -14.6984,-1.7812 -17.1858,1.7812 -10.1758,14.8433 3.8442,7.1247 11.9849,8.609 16.2813,2.9686 z"
       id="path247"
       style="fill:#000080;stroke-width:0.999999" />
    <path
       d="m 911.06637,7511.293 c -9.9496,-8.3123 -14.6983,-22.2649 -14.9244,-43.3423 0,-29.0927 11.0803,-45.7172 30.5274,-45.7172 11.7587,0 18.9948,5.0467 25.3265,17.5151 7.01,13.6557 7.2361,40.6704 0.2261,56.998 -8.3668,19.2963 -27.8139,26.421 -41.1556,14.5464 z m 22.1608,-15.7338 c 8.5929,-8.3123 8.819,-43.0454 0.2261,-52.5451 -4.7487,-5.3436 -13.1156,-2.3749 -16.5075,5.9373 -4.2964,10.984 -2.4874,41.2642 2.9398,46.3109 5.2009,5.0467 8.1406,5.3436 13.3416,0.2969 z"
       id="path249"
       style="fill:#000080;stroke-width:0.999999" />
    <path
       d="m 1109.3818,7514.2616 c -2.7135,-1.4843 -7.4622,-7.7185 -10.628,-13.9526 -4.9749,-9.4997 -5.8794,-14.5464 -5.8794,-32.3583 0,-19.593 0.4522,-21.6711 7.6884,-32.3583 7.2361,-10.9839 8.1407,-11.5777 23.2913,-12.7651 14.4722,-1.1875 16.2813,-0.5938 19.4471,5.3436 6.1055,11.2808 2.7136,14.5463 -13.5677,13.9526 -12.8894,-0.5937 -15.1507,0.2968 -18.7688,6.2342 -7.2361,11.8745 -3.8441,15.14 16.5075,16.0307 l 18.5426,0.8905 0.6784,10.0934 c 2.0351,28.2022 -17.8642,48.9828 -37.3114,38.8893 z m 18.3165,-19.5931 c 2.0352,-2.3749 3.618,-7.1247 3.618,-10.3902 0,-5.3436 -1.3566,-5.9373 -11.7586,-5.0467 -13.1155,0.8906 -15.603,5.0467 -8.8191,13.9526 5.6533,7.4217 12.211,8.0154 16.9597,1.4843 z"
       id="path251"
       style="fill:#000080;stroke-width:0.999999" />
    <path
       d="m 1177.6728,7515.1522 c -10.8541,-3.5624 -21.4822,-28.499 -21.4822,-50.467 0,-23.7492 14.4723,-42.4517 33.2409,-42.4517 20.804,0 22.8391,18.4057 2.2614,20.1868 -12.8894,1.1875 -17.412,8.0154 -17.412,27.3116 0,18.7025 3.8443,24.6398 17.1859,26.421 8.1406,1.4843 11.3064,3.2655 11.7587,7.1247 1.809,11.8746 -9.4974,16.9213 -25.5527,11.8746 z"
       id="path253"
       style="fill:#000080;stroke-width:0.999999" />
    <path
       d="m 1285.9888,7514.8553 c -1.809,-1.4843 -2.4875,-16.6244 -2.2613,-46.6077 l 0.2261,-44.5297 6.5577,-0.8906 c 10.1758,-1.4843 11.5327,2.6718 10.8543,33.2489 -0.9046,31.1707 1.3568,40.3735 9.4974,40.3735 9.4974,0 11.5326,-7.1247 11.5326,-41.2642 0,-30.8739 0,-31.4676 5.4271,-32.3582 2.9396,-0.5938 6.3317,0.2969 7.6884,2.0781 3.8441,5.0467 2.0352,74.2162 -2.0352,82.5284 -4.2964,8.9059 -16.7335,11.5777 -26.0048,5.6403 -6.5578,-4.156 -7.6885,-4.156 -11.0804,-0.2968 -4.0704,5.0467 -6.5577,5.3436 -10.4019,2.078 z"
       id="path255"
       style="fill:#000080;stroke-width:0.999999" />
    <path
       d="m 1366.4908,7513.6679 c -8.819,-6.2341 -15.8291,-25.2335 -15.8291,-43.3423 0,-19.2962 4.2965,-32.952 12.6633,-41.8579 5.4271,-5.6404 8.5929,-6.531 19.221,-5.6404 8.5929,0.8906 14.0199,2.9686 17.4119,7.1248 5.201,6.531 11.7588,27.6084 11.7588,38.2955 0,12.7652 -7.2363,35.6238 -12.8894,41.2642 -7.2361,7.1247 -24.8742,9.2028 -32.3365,4.1561 z m 21.4823,-18.4056 c 4.9748,-4.7498 7.236,-31.7646 3.6181,-43.936 -2.9398,-10.3903 -12.2111,-13.9527 -18.0904,-7.1248 -11.5326,13.9527 -5.6532,54.6232 7.9146,55.2169 1.1306,0 4.0702,-1.7812 6.5577,-4.1561 z"
       id="path257"
       style="fill:#000080;stroke-width:0.999999" />
    <path
       d="m 1473.9021,7514.5585 c -2.4874,-1.4844 -7.01,-6.2342 -10.1758,-10.6871 -5.2009,-7.1248 -5.6532,-10.3903 -5.6532,-33.5458 0,-21.0774 0.9045,-27.3115 4.5226,-33.8425 5.8794,-10.3903 12.6632,-14.2496 25.1003,-14.2496 19.8994,0 30.9798,25.5304 26.9095,61.1542 -2.2613,20.1868 -10.8543,31.4676 -25.1004,32.6552 -6.1055,0.5936 -13.1155,0 -15.603,-1.4844 z m 21.4824,-23.1555 c 4.0703,-7.1247 4.7487,-11.2808 4.0703,-25.8272 -1.1307,-17.8119 -4.9748,-25.5303 -13.1155,-25.5303 -8.3668,0 -11.9849,7.7184 -13.1155,26.4209 -0.9045,16.0307 -0.4523,19.2962 4.2965,25.8272 6.5577,9.2028 11.7586,8.906 17.8642,-0.8906 z"
       id="path259"
       style="fill:#000080;stroke-width:0.999999" />
    <path
       d="m 1541.0626,7514.2616 c -10.8542,-5.9373 -17.8643,-45.7172 -11.7587,-66.7945 5.4271,-18.9994 22.8389,-28.4991 32.1102,-17.2182 5.8795,6.8279 9.9498,1.4843 7.0101,-10.0934 -3.3919,-13.3589 -11.5326,-17.8119 -25.3265,-13.0621 -12.8893,4.1562 -16.0551,2.9687 -16.0551,-6.8278 0,-10.6872 4.9748,-13.6558 22.1606,-14.5464 13.1155,-0.5937 17.1858,0.5937 22.3868,5.6404 11.5326,11.2809 13.1155,18.9994 13.5677,73.0288 0.4523,44.8265 0.2262,49.5764 -3.3919,50.7638 -2.0351,0.5938 -6.5577,-0.8906 -9.9496,-3.5624 -5.6533,-3.8592 -6.5578,-3.8592 -10.4021,0.5938 -4.5225,5.6404 -12.2109,6.2341 -20.3515,2.078 z m 21.4822,-19.2962 c 9.9497,-9.2028 8.3668,-49.2795 -2.0351,-52.8419 -7.4623,-2.6718 -12.6633,2.6718 -15.3768,16.0307 -2.9397,14.2495 -1.1307,27.9053 4.7487,35.6238 5.201,6.8279 6.3316,6.8279 12.6632,1.1874 z"
       id="path261"
       style="fill:#000080;stroke-width:0.999999" />
    <path
       d="m 1595.5597,7512.4805 c -0.6784,-2.9687 -0.2261,-9.2029 1.3568,-14.2496 9.9496,-34.1394 18.5426,-71.5444 17.8642,-78.3722 -0.4523,-5.9374 -2.9397,-9.4997 -9.0452,-13.359 -14.02,-8.9059 -9.4974,-25.5304 5.8794,-21.6711 12.6633,3.2655 13.5677,5.0467 28.4923,70.0601 2.9397,12.1714 6.1054,23.4523 7.2361,24.9366 0.9045,1.7812 1.809,5.0467 1.809,7.4216 0,2.6718 1.5829,8.6091 3.3919,13.359 4.2966,10.6871 1.3568,16.6244 -8.3667,16.6244 -7.4623,0 -7.2362,0.5937 -12.6633,-33.8426 -2.2612,-14.8433 -5.4271,-27.3115 -6.5577,-27.6084 -2.9396,-1.4843 -6.7839,13.062 -9.7235,36.2175 -1.1306,9.2028 -3.392,18.7025 -4.7488,21.0773 -3.6181,5.6405 -13.1155,5.3436 -14.9245,-0.5936 z"
       id="path263"
       style="fill:#000080;stroke-width:0.999999" />
    <path
       d="m 1773.5234,7514.2616 c -2.7135,-2.3749 -1.5828,-8.9059 7.4623,-44.2329 12.6632,-48.3889 13.1155,-60.2635 2.9397,-62.6384 -14.9246,-3.2655 -13.3416,-22.5617 1.8089,-21.968 11.7588,0.5937 17.6382,9.2028 22.3869,32.952 5.4271,25.5304 9.7236,44.2329 16.9597,71.5444 4.7487,18.4056 5.201,22.2649 2.4875,24.6398 -3.8443,3.2655 -9.0453,3.2655 -12.4372,0.2968 -1.1307,-1.1874 -4.0703,-13.3589 -6.3316,-27.3115 -2.0352,-13.9527 -4.2965,-27.6084 -4.9748,-30.5771 -2.7136,-11.8746 -7.9146,3.8593 -12.211,36.2175 -2.9397,22.2649 -8.5929,29.0928 -18.0904,21.0774 z"
       id="path265"
       style="fill:#000080;stroke-width:0.999999" />
    <path
       d="m 1919.3768,7507.4338 c -11.7587,-15.437 -15.1507,-38.2956 -9.0451,-59.9667 4.9747,-16.6245 15.1506,-25.2336 30.3013,-25.2336 14.9244,0 20.5777,3.8593 20.5777,13.9527 0,7.4216 -0.2261,7.7185 -11.7587,5.9373 -15.3768,-2.3749 -20.8039,-0.2969 -24.6481,8.6091 -4.0703,10.3902 -0.2262,13.062 19.6732,13.062 18.7688,0 19.8994,1.4843 16.9597,22.8586 -4.2964,29.6865 -26.9094,40.6705 -42.06,20.7806 z m 24.1958,-13.0621 c 6.1055,-7.1248 5.201,-15.7339 -1.3568,-15.7339 -2.9397,0 -6.7839,-0.5937 -8.5929,-1.4843 -1.5829,-0.8906 -4.9748,0.2969 -7.4622,2.6718 -4.0704,3.8592 -4.0704,4.453 -0.4523,11.8746 4.5226,8.906 11.7587,10.0934 17.8642,2.6718 z"
       id="path267"
       style="fill:#000080;stroke-width:0.999999" />
    <path
       d="m 1975.9091,7513.6679 c -0.4522,-2.0781 -0.6783,-23.1554 -0.4522,-46.9046 l 0.4522,-43.0454 6.3317,-0.8906 c 10.8541,-1.7812 12.437,2.6718 11.3063,30.2802 -1.3567,27.9053 0.6784,36.2175 10.6282,40.9673 8.1406,3.5624 10.8542,13.0621 5.8794,19.89 -3.392,4.4529 -4.2965,4.4529 -10.8543,-0.5938 -6.3317,-4.7498 -7.2361,-4.7498 -10.8542,-0.5937 -4.5226,5.3436 -11.0804,5.9373 -12.4371,0.8906 z"
       id="path269"
       style="fill:#000080;stroke-width:0.999999" />
    <path
       d="m 2027.4665,7512.7773 c -5.2009,-4.7499 -7.01,-14.5464 -3.3919,-17.515 1.1307,-0.8906 6.1055,0 11.5326,1.7812 12.211,4.1561 21.2562,-0.2969 20.1255,-10.3903 -0.6784,-5.6404 -2.4874,-6.8279 -13.1155,-8.3122 -16.0552,-2.0781 -19.8994,-4.453 -23.7435,-14.8433 -5.201,-12.7651 -4.0704,-22.8585 3.1657,-32.6551 5.201,-6.531 8.8191,-8.6091 15.603,-8.6091 4.9748,0 10.1758,1.7812 11.5326,4.1562 2.2613,3.5624 3.618,3.5624 9.0452,-0.5938 3.3919,-2.3749 7.9145,-3.5624 10.1758,-2.6717 3.3919,1.7812 3.618,5.9372 2.4874,39.7798 -1.1307,35.0301 -1.5829,38.5924 -6.7839,45.1234 -7.01,9.4998 -28.9446,12.1715 -36.633,4.7499 z m 28.2662,-52.8419 c 1.5829,-18.1088 -17.1858,-28.2022 -22.6129,-12.1715 -2.4874,7.1248 -2.0351,8.6091 3.618,15.1401 8.8191,9.7966 18.0904,8.3122 18.9949,-2.9686 z"
       id="path271"
       style="fill:#000080;stroke-width:0.999999" />
    <path
       d="m 2163.8225,7512.4805 c -4.5226,-5.9374 -4.7488,-14.8433 -0.2262,-17.2182 1.8091,-0.8906 6.3317,0 10.1759,1.4843 8.819,4.1561 17.4119,1.1875 19.221,-6.2341 2.2612,-9.2029 -0.4523,-11.8747 -12.6633,-11.8747 -9.4974,0 -12.437,-1.4843 -18.0903,-8.6091 -17.412,-23.1554 1.5829,-59.6697 23.2913,-44.5296 3.1658,2.3749 6.3316,2.078 10.8542,-0.2969 7.01,-3.8592 17.1858,0.5937 14.6984,6.2342 -0.9045,1.4843 -1.809,17.515 -2.2613,35.3269 -0.4522,17.8118 -2.0351,35.03 -3.1658,38.2955 -4.7487,11.5777 -34.5978,16.9213 -41.8339,7.4217 z m 29.8491,-52.2483 c 0.9045,-10.984 -8.3668,-23.4523 -15.3768,-21.0774 -2.7136,0.8907 -6.1055,5.0467 -7.4623,9.2029 -2.2613,6.2341 -1.809,8.0153 3.8442,14.5463 8.819,9.7966 18.0903,8.3122 18.9949,-2.6718 z"
       id="path273"
       style="fill:#000080;stroke-width:0.999999" />
    <path
       d="m 194.46287,7512.4805 c -0.9045,-1.1875 -1.5829,-21.3743 -1.5829,-44.5298 v -42.7485 l 5.6533,-1.7812 c 12.2109,-3.8592 12.6632,-2.078 11.9848,45.4203 l -0.6784,43.936 -6.7839,0.8906 c -3.8441,0.5937 -7.6884,0 -8.5929,-1.1874 z"
       id="path275"
       style="fill:#000080;stroke-width:0.999999" />
    <path
       d="m 603.98297,7472.1068 c -0.4523,-23.4523 0.2261,-44.2328 1.3568,-46.3109 1.1306,-2.078 4.7487,-3.5624 7.9145,-2.9686 l 5.8793,0.8906 v 44.5297 44.5297 l -7.2361,0.8906 -7.2362,0.8906 z"
       id="path277"
       style="fill:#000080;stroke-width:0.999999" />
  </g>
</svg>
